/* XPM */
static char *result[] = {
/* columns rows colors chars-per-pixel */
"32 32 9 1 ",
"  c black",
". c #570F1E",
"X c #A9120A",
"o c #CB3C27",
"O c #E37A2D",
"+ c #F1AA25",
"@ c #FCE072",
"# c #FBFEC0",
"$ c None",
/* pixels */
"$$$$$$$$$$$$$       $$$$$$$$$$$$",
"$$$$$$$$$$$  OOOOOoX  $$$$$$$$$$",
"$$$$$$$$$$ OOoo#O+++#o $$$$$$$$$",
"$$$$$$$$$ OXooo#o+#@++@ $$$$$$$$",
"$$$$$$$$ OXoooo+@#oX@@+@ $$$$$$$",
"$$$$$   OXoXXXXXX#ooX@@@@ $$$$$$",
"$$$$ X OXoXXX....X#+oX@@@@ $$$$$",
"$$$$   OXXXX...XXX.@XXo@+@+ $$$$",
"$$$ X OoXXo......XX@.X.O@+@o $$$",
"$$$$  OXXoX..X.  .@O...o@+O+ $$$",
"$$$ o OXXo..X. ...@O.. X+@OOX $$",
"$$$ oXoXoX.X. ...  +.. .O@+Oo $$",
"$$$ oXXXoXXX  ..    O.  o@+oO $$",
"$$$ oXXXoXX. ...     .  X@+oOX $",
"$$$ oXXooXX. ..         X@+oOo $",
"$$$ oXXooXX  ..         X++ooO $",
"$$$ oXXooX.  ..         X++oXO $",
"$$$ XoXooX.  ..         X++o O $",
"$$  .oXooX.  ..         X++o O $",
"$$ +.oXooX.  ..         o@+o o $",
"$$ ##+XXoX..  .      . .O@+X o $",
"$ @  X#Xoo+.   .     . X+@OX X $",
"$  $ ++#@+X..   ..   . o+@O   $$",
"$$$ # XoXoX.X.      . .+@+o  $$$",
"$$ +X .oXoXX.X.    .. o+@OX X $$",
"$$  @  XoooXXXoX....X.+@+o.  O $",
"$$$$  X.OXooXXXooooX.+@##o  O  $",
"$$$$$$ X.OXXooXXXoX.+@@ o@@@+ $$",
"$$$$$$$ ooOoXXooooo+@O  o  + $$$",
"$$$$$$$$ XoOOoXXoO++o  X $$  $$$",
"$$$$$$$$$  XoOO+++o   . $$$$$$$$",
"$$$$$$$$$$$        $$  $$$$$$$$$"
};
