/* XPM */
static char *josephkhel1678332701[] = {
/* columns rows colors chars-per-pixel */
"32 32 31 1 ",
"  c None",
". c black",
"X c #160E04",
"o c #321505",
"O c #570F1E",
"+ c #502812",
"@ c #62351D",
"# c #7A472C",
"$ c #705836",
"% c #174141",
"& c #2B5D5D",
"* c #457878",
"= c #9F0100",
"- c #A9120A",
"; c #FF0302",
": c #CB3C27",
"> c #A0642E",
", c #E37A2D",
"< c #825046",
"1 c #8D6D48",
"2 c #9D674B",
"3 c #F1AA25",
"4 c #A5835D",
"5 c #D5AF54",
"6 c #FCE072",
"7 c #659797",
"8 c #C98181",
"9 c #DBA1A1",
"0 c #FEFE82",
"q c #EDC0C0",
"w c #FBFEC0",
/* pixels */
"             ....... ...        ",
"           ..,.....-.;==.       ",
"          .,,.00055.;=;.        ",
"        ..,-.00055>;=;..        ",
"       .0>...*7*&&;=;..6.       ",
"     ....0000000055>>>>.6.      ",
"    .-.,-.>>+++++++++++>.6.     ",
"    ...,--....<<+++.....363.    ",
"   .-.,:--:OO.<8++<.O-O,636:.   ",
"    ..,--:-...%88<%....:63,3.   ",
"   .:.,--:.@@+*+++&+1##.36,,-.  ",
"   .:-:-:.+o@2&77&%##o++.63,:.  ",
"   .:---:..%%22#+#2@o%7.:63:,.  ",
"   .:---:-.*%#4#4@@@%77&.63:,-. ",
"   .:--::.**%12#1@#oo**7.63:,:. ",
"   .:....&*&%@2#1+@o..**&.3::,. ",
"   ..q977*&%.o@$@+@+...**.3:-,. ",
"   ..98<7&&..Xo+@+oXX..&7*.:.,. ",
"  ...88&*....*X05XX%...7&8.:.,. ",
"  .3O....-O..7******&...98.:.:. ",
"  .ww3--:-O.*77*&*77&...98.-.:. ",
" .6..-w-::3.77*&.&*7*..-.8.-.-. ",
" .. .33w63-.77&.O.&77..:3.,...  ",
"   .w.-:-:.*7&....&***.363:...  ",
"  .3-.O:-:.**&.....&7*.3....... ",
"  ..6..-::.*7&.-OO.&*&......... ",
"    ..-O,-.*&@.:....&++........ ",
"      .-O,.+@+......@+X.......  ",
"       .::.o++......++o......   ",
"        ..@@++......+@+......   ",
"        .@@@+o...3:.o@@+..      ",
"         ................       "
};
